<svg width="193" height="40" viewBox="0 0 193 40" fill="none" xmlns="http://www.w3.org/2000/svg">
<path d="M29.6833 7.44992C29.55 7.44992 29.4167 7.41658 29.3 7.34992C26.1 5.69992 23.3333 4.99992 20.0167 4.99992C16.7167 4.99992 13.5833 5.78325 10.7333 7.34992C10.3333 7.56659 9.83335 7.41659 9.60002 7.01659C9.38335 6.61659 9.53335 6.09992 9.93335 5.88325C13.0333 4.19992 16.4333 3.33325 20.0167 3.33325C23.5667 3.33325 26.6667 4.11659 30.0667 5.86659C30.4834 6.08325 30.6334 6.58325 30.4167 6.98325C30.2667 7.28325 29.9833 7.44992 29.6833 7.44992ZM5.83335 16.1999C5.66668 16.1999 5.50002 16.1499 5.35002 16.0499C4.96668 15.7833 4.88335 15.2666 5.15002 14.8833C6.80002 12.5499 8.90002 10.7166 11.4 9.43325C16.6334 6.73325 23.3333 6.71659 28.5833 9.41659C31.0833 10.6999 33.1833 12.5166 34.8333 14.8333C35.1 15.1999 35.0167 15.7333 34.6334 15.9999C34.25 16.2666 33.7334 16.1833 33.4667 15.7999C31.9667 13.6999 30.0667 12.0499 27.8167 10.8999C23.0333 8.44992 16.9167 8.44992 12.15 10.9166C9.88335 12.0833 7.98335 13.7499 6.48335 15.8499C6.35002 16.0833 6.10002 16.1999 5.83335 16.1999ZM16.25 36.3166C16.0333 36.3166 15.8167 36.2332 15.6667 36.0666C14.2167 34.6166 13.4333 33.6833 12.3167 31.6666C11.1667 29.6166 10.5667 27.1166 10.5667 24.4333C10.5667 19.4833 14.8 15.4499 20 15.4499C25.2 15.4499 29.4333 19.4833 29.4333 24.4333C29.4333 24.8999 29.0667 25.2666 28.6 25.2666C28.1334 25.2666 27.7667 24.8999 27.7667 24.4333C27.7667 20.3999 24.2833 17.1166 20 17.1166C15.7167 17.1166 12.2333 20.3999 12.2333 24.4333C12.2333 26.8333 12.7667 29.0499 13.7834 30.8499C14.85 32.7666 15.5834 33.5833 16.8667 34.8833C17.1833 35.2166 17.1833 35.7332 16.8667 36.0666C16.6833 36.2332 16.4667 36.3166 16.25 36.3166ZM28.2 33.2333C26.2167 33.2333 24.4667 32.7332 23.0333 31.7499C20.55 30.0666 19.0667 27.3333 19.0667 24.4333C19.0667 23.9666 19.4333 23.5999 19.9 23.5999C20.3667 23.5999 20.7333 23.9666 20.7333 24.4333C20.7333 26.7833 21.9333 28.9999 23.9667 30.3666C25.15 31.1666 26.5333 31.5499 28.2 31.5499C28.6 31.5499 29.2667 31.4999 29.9333 31.3833C30.3833 31.2999 30.8167 31.5999 30.9 32.0666C30.9834 32.5166 30.6833 32.9499 30.2167 33.0333C29.2667 33.2166 28.4333 33.2333 28.2 33.2333ZM24.85 36.6666C24.7833 36.6666 24.7 36.6499 24.6333 36.6333C21.9833 35.8999 20.25 34.9166 18.4333 33.1332C16.1 30.8166 14.8167 27.7333 14.8167 24.4333C14.8167 21.7333 17.1167 19.5333 19.95 19.5333C22.7833 19.5333 25.0833 21.7333 25.0833 24.4333C25.0833 26.2166 26.6333 27.6666 28.55 27.6666C30.4667 27.6666 32.0167 26.2166 32.0167 24.4333C32.0167 18.1499 26.6 13.0499 19.9333 13.0499C15.2 13.0499 10.8667 15.6833 8.91668 19.7666C8.26668 21.1166 7.93335 22.6999 7.93335 24.4333C7.93335 25.7333 8.05002 27.7833 9.05002 30.4499C9.21668 30.8833 9.00002 31.3666 8.56668 31.5166C8.13335 31.6833 7.65002 31.4499 7.50002 31.0333C6.68335 28.8499 6.28335 26.6833 6.28335 24.4333C6.28335 22.4333 6.66668 20.6166 7.41668 19.0333C9.63335 14.3833 14.55 11.3666 19.9333 11.3666C27.5167 11.3666 33.6833 17.2166 33.6833 24.4166C33.6833 27.1166 31.3833 29.3166 28.55 29.3166C25.7167 29.3166 23.4167 27.1166 23.4167 24.4166C23.4167 22.6333 21.8667 21.1833 19.95 21.1833C18.0333 21.1833 16.4834 22.6333 16.4834 24.4166C16.4834 27.2666 17.5833 29.9333 19.6 31.9333C21.1833 33.4999 22.7 34.3666 25.05 35.0166C25.5 35.1333 25.75 35.5999 25.6334 36.0333C25.55 36.4166 25.2 36.6666 24.85 36.6666Z" fill="black"/>
<path d="M56.5664 20.7695H49.6992V28H46.7344V10.9375H57.5742V13.3281H49.6992V18.4023H56.5664V20.7695ZM58.3633 21.543C58.3633 20.3008 58.6094 19.1836 59.1016 18.1914C59.5938 17.1914 60.2852 16.4258 61.1758 15.8945C62.0664 15.3555 63.0898 15.0859 64.2461 15.0859C65.957 15.0859 67.3438 15.6367 68.4062 16.7383C69.4766 17.8398 70.0547 19.3008 70.1406 21.1211L70.1523 21.7891C70.1523 23.0391 69.9102 24.1562 69.4258 25.1406C68.9492 26.125 68.2617 26.8867 67.3633 27.4258C66.4727 27.9648 65.4414 28.2344 64.2695 28.2344C62.4805 28.2344 61.0469 27.6406 59.9688 26.4531C58.8984 25.2578 58.3633 23.668 58.3633 21.6836V21.543ZM61.2109 21.7891C61.2109 23.0938 61.4805 24.1172 62.0195 24.8594C62.5586 25.5938 63.3086 25.9609 64.2695 25.9609C65.2305 25.9609 65.9766 25.5859 66.5078 24.8359C67.0469 24.0859 67.3164 22.9883 67.3164 21.543C67.3164 20.2617 67.0391 19.2461 66.4844 18.4961C65.9375 17.7461 65.1914 17.3711 64.2461 17.3711C63.3164 17.3711 62.5781 17.7422 62.0312 18.4844C61.4844 19.2188 61.2109 20.3203 61.2109 21.7891ZM78.6992 17.9219C78.3242 17.8594 77.9375 17.8281 77.5391 17.8281C76.2344 17.8281 75.3555 18.3281 74.9023 19.3281V28H72.0547V15.3203H74.7734L74.8438 16.7383C75.5312 15.6367 76.4844 15.0859 77.7031 15.0859C78.1094 15.0859 78.4453 15.1406 78.7109 15.25L78.6992 17.9219ZM79.2656 21.5664C79.2656 19.5977 79.7266 18.0273 80.6484 16.8555C81.5781 15.6758 82.8086 15.0859 84.3398 15.0859C85.7852 15.0859 86.9219 15.5898 87.75 16.5977L87.8789 15.3203H90.4453V27.6133C90.4453 29.2773 89.9258 30.5898 88.8867 31.5508C87.8555 32.5117 86.4609 32.9922 84.7031 32.9922C83.7734 32.9922 82.8633 32.7969 81.9727 32.4062C81.0898 32.0234 80.418 31.5195 79.957 30.8945L81.3047 29.1836C82.1797 30.2227 83.2578 30.7422 84.5391 30.7422C85.4844 30.7422 86.2305 30.4844 86.7773 29.9688C87.3242 29.4609 87.5977 28.7109 87.5977 27.7188V26.8633C86.7773 27.7773 85.6836 28.2344 84.3164 28.2344C82.832 28.2344 81.6172 27.6445 80.6719 26.4648C79.7344 25.2852 79.2656 23.6523 79.2656 21.5664ZM82.1016 21.8125C82.1016 23.0859 82.3594 24.0898 82.875 24.8242C83.3984 25.5508 84.1211 25.9141 85.043 25.9141C86.1914 25.9141 87.043 25.4219 87.5977 24.4375V18.8594C87.0586 17.8984 86.2148 17.418 85.0664 17.418C84.1289 17.418 83.3984 17.7891 82.875 18.5312C82.3594 19.2734 82.1016 20.3672 82.1016 21.8125ZM98.4648 28.2344C96.6602 28.2344 95.1953 27.668 94.0703 26.5352C92.9531 25.3945 92.3945 23.8789 92.3945 21.9883V21.6367C92.3945 20.3711 92.6367 19.2422 93.1211 18.25C93.6133 17.25 94.3008 16.4727 95.1836 15.918C96.0664 15.3633 97.0508 15.0859 98.1367 15.0859C99.8633 15.0859 101.195 15.6367 102.133 16.7383C103.078 17.8398 103.551 19.3984 103.551 21.4141V22.5625H95.2656C95.3516 23.6094 95.6992 24.4375 96.3086 25.0469C96.9258 25.6562 97.6992 25.9609 98.6289 25.9609C99.9336 25.9609 100.996 25.4336 101.816 24.3789L103.352 25.8438C102.844 26.6016 102.164 27.1914 101.312 27.6133C100.469 28.0273 99.5195 28.2344 98.4648 28.2344ZM98.125 17.3711C97.3438 17.3711 96.7109 17.6445 96.2266 18.1914C95.75 18.7383 95.4453 19.5 95.3125 20.4766H100.738V20.2656C100.676 19.3125 100.422 18.5938 99.9766 18.1094C99.5312 17.6172 98.9141 17.3711 98.125 17.3711ZM108.84 12.2383V15.3203H111.078V17.4297H108.84V24.5078C108.84 24.9922 108.934 25.3438 109.121 25.5625C109.316 25.7734 109.66 25.8789 110.152 25.8789C110.48 25.8789 110.812 25.8398 111.148 25.7617V27.9648C110.5 28.1445 109.875 28.2344 109.273 28.2344C107.086 28.2344 105.992 27.0273 105.992 24.6133V17.4297H103.906V15.3203H105.992V12.2383H108.84ZM122.359 10.9375L127.281 24.0156L132.191 10.9375H136.023V28H133.07V22.375L133.363 14.8516L128.324 28H126.203L121.176 14.8633L121.469 22.375V28H118.516V10.9375H122.359ZM144.348 28.2344C142.543 28.2344 141.078 27.668 139.953 26.5352C138.836 25.3945 138.277 23.8789 138.277 21.9883V21.6367C138.277 20.3711 138.52 19.2422 139.004 18.25C139.496 17.25 140.184 16.4727 141.066 15.918C141.949 15.3633 142.934 15.0859 144.02 15.0859C145.746 15.0859 147.078 15.6367 148.016 16.7383C148.961 17.8398 149.434 19.3984 149.434 21.4141V22.5625H141.148C141.234 23.6094 141.582 24.4375 142.191 25.0469C142.809 25.6562 143.582 25.9609 144.512 25.9609C145.816 25.9609 146.879 25.4336 147.699 24.3789L149.234 25.8438C148.727 26.6016 148.047 27.1914 147.195 27.6133C146.352 28.0273 145.402 28.2344 144.348 28.2344ZM144.008 17.3711C143.227 17.3711 142.594 17.6445 142.109 18.1914C141.633 18.7383 141.328 19.5 141.195 20.4766H146.621V20.2656C146.559 19.3125 146.305 18.5938 145.859 18.1094C145.414 17.6172 144.797 17.3711 144.008 17.3711ZM170.441 28H167.477L159.871 15.8945V28H156.906V10.9375H159.871L167.5 23.0898V10.9375H170.441V28ZM172.637 21.543C172.637 20.3008 172.883 19.1836 173.375 18.1914C173.867 17.1914 174.559 16.4258 175.449 15.8945C176.34 15.3555 177.363 15.0859 178.52 15.0859C180.23 15.0859 181.617 15.6367 182.68 16.7383C183.75 17.8398 184.328 19.3008 184.414 21.1211L184.426 21.7891C184.426 23.0391 184.184 24.1562 183.699 25.1406C183.223 26.125 182.535 26.8867 181.637 27.4258C180.746 27.9648 179.715 28.2344 178.543 28.2344C176.754 28.2344 175.32 27.6406 174.242 26.4531C173.172 25.2578 172.637 23.668 172.637 21.6836V21.543ZM175.484 21.7891C175.484 23.0938 175.754 24.1172 176.293 24.8594C176.832 25.5938 177.582 25.9609 178.543 25.9609C179.504 25.9609 180.25 25.5859 180.781 24.8359C181.32 24.0859 181.59 22.9883 181.59 21.543C181.59 20.2617 181.312 19.2461 180.758 18.4961C180.211 17.7461 179.465 17.3711 178.52 17.3711C177.59 17.3711 176.852 17.7422 176.305 18.4844C175.758 19.2188 175.484 20.3203 175.484 21.7891ZM189.902 12.2383V15.3203H192.141V17.4297H189.902V24.5078C189.902 24.9922 189.996 25.3438 190.184 25.5625C190.379 25.7734 190.723 25.8789 191.215 25.8789C191.543 25.8789 191.875 25.8398 192.211 25.7617V27.9648C191.562 28.1445 190.938 28.2344 190.336 28.2344C188.148 28.2344 187.055 27.0273 187.055 24.6133V17.4297H184.969V15.3203H187.055V12.2383H189.902Z" fill="black"/>
</svg>
